<?xml version="1.0" encoding="UTF-8" standalone="no"?>
<!-- Created with Inkscape (http://www.inkscape.org/) -->

<svg
   width="90mm"
   height="50mm"
   viewBox="0 0 90 50"
   version="1.1"
   id="svg5"
   inkscape:version="1.2.2 (b0a8486541, 2022-12-01)"
   sodipodi:docname="sample-images.svg"
   xmlns:inkscape="http://www.inkscape.org/namespaces/inkscape"
   xmlns:sodipodi="http://sodipodi.sourceforge.net/DTD/sodipodi-0.dtd"
   xmlns="http://www.w3.org/2000/svg"
   xmlns:svg="http://www.w3.org/2000/svg">
  <sodipodi:namedview
     id="namedview7"
     pagecolor="#ffffff"
     bordercolor="#000000"
     borderopacity="0.25"
     inkscape:showpageshadow="2"
     inkscape:pageopacity="0.0"
     inkscape:pagecheckerboard="0"
     inkscape:deskcolor="#d1d1d1"
     inkscape:document-units="mm"
     showgrid="false"
     inkscape:zoom="0.70110129"
     inkscape:cx="467.12223"
     inkscape:cy="581.94159"
     inkscape:window-width="1920"
     inkscape:window-height="959"
     inkscape:window-x="0"
     inkscape:window-y="29"
     inkscape:window-maximized="1"
     inkscape:current-layer="layer1" />
  <defs
     id="defs2" />
  <g
     inkscape:label="Layer 1"
     inkscape:groupmode="layer"
     id="layer1"
     transform="translate(-31.779067,-218.42529)">
    <g
       id="g1107">
      <rect
         style="fill:#e6e6e6;fill-opacity:0.941176;fill-rule:evenodd;stroke:#ffffff;stroke-width:0.0635333;stroke-opacity:0.996078"
         id="rect788-6-6"
         width="89.936462"
         height="49.936466"
         x="31.810835"
         y="218.45706"
         ry="0" />
      <g
         id="g245-1-9-7-6"
         inkscape:export-filename="../../../eleventy/becss/images/name-logo.svg"
         inkscape:export-xdpi="96"
         inkscape:export-ydpi="96"
         style="fill:#f2f2f2;fill-opacity:1"
         transform="matrix(0.38813172,0,0,0.38813172,120.87746,213.30096)">
        <path
           id="path1543-6-6-2-1-5-0"
           style="fill:#f2f2f2;fill-opacity:1;fill-rule:evenodd;stroke-width:0.117094"
           d="m -120.77771,103.19696 c 1.38907,6.44614 7.23625,11.47941 7.23625,11.47941 0,0 5.69767,-5.09858 7.55096,-11.47941 z" />
        <path
           id="path1334-7-2-3-6"
           style="fill:#f2f2f2;fill-opacity:1;fill-rule:evenodd;stroke-width:0.318995"
           d="m -114.04053,40.551269 c -5.84693,0.05748 -20.05991,11.987667 -20.2892,42.676467 -0.002,0.21856 0.001,0.43473 0.007,0.64957 6.38734,-3.14722 14.64235,3.28375 9.83145,11.24221 -0.23586,0.38464 -0.49297,0.7536 -0.76637,1.10898 h 10.00508 c -0.47808,-1.68123 -0.85603,-3.70696 -0.81236,-5.85598 0.0691,-7.99192 5.44333,-8.29011 5.36453,-0.25166 -0.0287,2.22503 -0.47937,4.34974 -1.00924,6.10764 h 9.72292 c -0.26418,-0.34559 -0.51326,-0.7038 -0.74207,-1.07694 -4.92459,-8.14653 3.841694,-14.69311 10.281031,-11.00346 0.0093,-0.31476 0.01251,-0.6335 0.0083,-0.95705 0.06677,-30.56371 -15.325801,-42.701467 -21.600751,-42.639777 z m 0.54053,7.452259 a 7.5155978,7.5155978 0 0 1 7.51531,7.515308 7.5155978,7.5155978 0 0 1 -7.51531,7.51582 7.5155978,7.5155978 0 0 1 -7.51582,-7.51582 7.5155978,7.5155978 0 0 1 7.51582,-7.515308 z" />
        <path
           id="path1543-6-0-7-5-2"
           style="fill:#f2f2f2;fill-opacity:1;fill-rule:evenodd;stroke-width:0.103941"
           d="m -124.95408,97.908493 c -0.0251,0.11856 -0.042,0.23932 -0.0481,0.36277 -0.13305,1.13721 0.63507,2.229797 1.82211,3.218417 h 18.90014 c 1.41452,-1.04869 2.43656,-2.210247 2.52543,-3.408067 0.003,-0.0584 0.004,-0.1159 0.003,-0.17312 h -10.21488 c -0.7057,2.03287 -1.42059,3.348637 -1.42059,3.348637 0,0 -0.73899,-1.307047 -1.42627,-3.348637 z" />
        <path
           style="fill:#f2f2f2;fill-opacity:1;fill-rule:evenodd;stroke-width:0.0948743"
           d="m -126.04691,94.581413 c 4.78497,-7.91552 -6.38284,-13.96723 -11.12118,-6.08657 -3.42396,5.39736 -0.65283,13.317597 -0.65283,13.317597 0,0 8.42043,-1.76196 11.77401,-7.231027 z"
           id="path1543-7-9-0-6-6"
           sodipodi:nodetypes="cccc" />
        <path
           style="fill:#f2f2f2;fill-opacity:1;fill-rule:evenodd;stroke-width:0.0948745"
           d="m -101.18724,94.505743 c -4.78497,-7.91553 6.382842,-13.96723 11.121176,-6.08657 3.423961,5.39736 0.652827,13.317597 0.652827,13.317597 0,0 -8.420422,-1.761947 -11.774003,-7.231027 z"
           id="path1543-3-3-3-9-2-1"
           sodipodi:nodetypes="cccc" />
      </g>
    </g>
  </g>
</svg>
